<svg id="Capa_1" data-name="Capa 1" xmlns="http://www.w3.org/2000/svg" viewBox="0 0 500 500"><defs><style>.cls-1{fill:#fff}</style></defs><circle class="cls-1" cx="133.01" cy="226.01" r="26"/><path class="cls-1" d="M133.01 278.01c-28.67 0-52 23.33-52 52v41.07c15.94 6.99 33.51 10.93 52 10.93s36.06-3.94 52-10.93v-41.07c0-28.19-23.81-52-52-52ZM484.02 83c-11.83 15.73-30.81 26-52 26s-40.17-10.27-52-26c-8.19 10.79-13 24.31-13 39v13c0 7.15 5.85 13 13 13h104c7.15 0 13-5.85 13-13v-13c0-14.69-4.81-28.21-13-39Z"/><circle class="cls-1" cx="432.02" cy="44" r="39"/><path class="cls-1" d="M432.02 284.51c-21.19 0-40.17-10.27-52-26-8.19 10.79-13 24.31-13 39v13c0 7.15 5.85 13 13 13h104c7.15 0 13-5.85 13-13v-13c0-14.69-4.81-28.21-13-39-11.83 15.73-30.81 26-52 26Z"/><circle class="cls-1" cx="432.02" cy="219.51" r="39"/><path class="cls-1" d="M432.02 460.02c-21.19 0-40.17-10.27-52-26-8.19 10.79-13 24.31-13 39v13c0 7.15 5.85 13 13 13h104c7.15 0 13-5.85 13-13v-13c0-14.69-4.81-28.21-13-39-11.83 15.73-30.81 26-52 26Z"/><circle class="cls-1" cx="432.02" cy="395.02" r="39"/><path class="cls-1" d="M341.01 239.01h-26v-117h13c7.18 0 13-5.82 13-13s-5.82-13-13-13h-26c-7.18 0-13 5.82-13 13v130h-26.66C255.81 173.4 200.3 122 133 122c-71.68.01-130 58.32-130 130.01 0 42.4 20.5 80.01 52 103.76v-25.75c0-29.38 16.34-54.99 40.39-68.29C86.53 252.4 81 239.87 81 226.02c0-28.67 23.33-52 52-52s52 23.33 52 52c0 13.96-5.6 26.59-14.58 35.94C194.38 275.45 211 301.2 211 330.02v25.75c28.24-21.28 47.5-53.73 51.22-90.76H289v130.01c0 7.18 5.82 13 13 13h26c7.18 0 13-5.82 13-13s-5.82-13-13-13h-13V265.01h26c7.18 0 13-5.82 13-13s-5.82-13-13-13Z"/></svg>