<svg id="Capa_1" data-name="Capa 1" xmlns="http://www.w3.org/2000/svg" viewBox="0 0 500 500"><defs><style>.cls-1{fill:#fff}</style></defs><circle class="cls-1" cx="328.97" cy="236.15" r="26.16"/><path class="cls-1" d="M158.95 484.65c0 7.23 5.85 13.08 13.08 13.08h156.95c7.23 0 13.08-5.85 13.08-13.08v-39.24H158.95v39.24Z"/><circle class="cls-1" cx="106.63" cy="105.36" r="26.16"/><path class="cls-1" d="M198.18 340.78h104.63v78.47H198.18zM472.84.73H28.16C13.71.73 2 12.44 2 26.89v261.58c0 14.45 11.71 26.16 26.16 26.16h444.68c14.45 0 26.16-11.71 26.16-26.16V26.89C499 12.44 487.29.73 472.84.73ZM183.52 69.96c-5.11-5.11-5.11-13.39 0-18.49 5.11-5.11 13.39-5.11 18.49 0l9.25 9.25 9.25-9.25c5.11-5.11 13.39-5.11 18.49 0 5.11 5.11 5.11 13.39 0 18.49l-9.25 9.25 9.25 9.25c5.11 5.11 5.11 13.38 0 18.49-5.02 5.02-13.49 5-18.5 0l-9.25-9.25-9.25 9.25c-4.99 4.99-13.53 4.97-18.49 0-5.11-5.11-5.11-13.39 0-18.49l9.25-9.25-9.25-9.25Zm-76.89 87.72c-28.85 0-52.32-23.46-52.32-52.32s23.46-52.32 52.32-52.32 52.32 23.46 52.32 52.32-23.46 52.32-52.32 52.32Zm222.34 130.79c-28.85 0-52.32-23.46-52.32-52.32s23.46-52.32 52.32-52.32 52.32 23.46 52.32 52.32-23.46 52.32-52.32 52.32Zm48.48-173.86c-4.91 4.91-13.37 5.12-18.49 0L342.05 97.7v33.82c0 21.64-17.6 39.24-39.24 39.24H198.18c-7.22 0-13.08 5.86-13.08 13.08v91.55c0 7.23-5.85 13.08-13.08 13.08s-13.08-5.85-13.08-13.08v-91.55c0-21.64 17.6-39.24 39.24-39.24h104.63c7.22 0 13.08-5.86 13.08-13.08V97.7l-16.91 16.91c-5.11 5.11-13.39 5.11-18.49 0-5.11-5.11-5.11-13.39 0-18.49l39.24-39.24c5.11-5.11 13.39-5.11 18.49 0l39.24 39.24c5.11 5.11 5.11 13.39 0 18.49ZM448.26 180c5.11 5.11 5.11 13.38 0 18.49-5.05 5.06-13.45 5.05-18.49 0l-9.25-9.25-9.25 9.25c-5.08 5.08-13.44 5.06-18.49 0-5.11-5.11-5.11-13.39 0-18.49l9.25-9.25-9.25-9.25c-5.11-5.11-5.11-13.39 0-18.49s13.39-5.11 18.49 0l9.25 9.25 9.25-9.25c5.11-5.11 13.39-5.11 18.49 0 5.11 5.11 5.11 13.39 0 18.49l-9.25 9.25 9.25 9.25Z"/></svg>