<svg id="Capa_1" data-name="Capa 1" xmlns="http://www.w3.org/2000/svg" viewBox="0 0 500 500"><defs><style>.cls-1{fill:#fff}</style></defs><path class="cls-1" d="M209.6 237.03h25.52c-2.53-22.78-11.57-43.61-25.19-60.63l-17.99 17.99c-5.14 5.14-13.46 5.14-18.6 0-5.14-5.14-5.14-13.46 0-18.59l17.99-17.99c-17.02-13.62-37.84-22.66-60.63-25.19v25.52c0 7.27-5.88 13.15-13.15 13.15s-13.15-5.88-13.15-13.15v-25.52c-22.78 2.53-43.61 11.57-60.63 25.19l17.99 17.99c5.14 5.14 5.14 13.46 0 18.59-5.14 5.14-13.46 5.14-18.6 0L25.17 176.4C11.57 193.42 2.53 214.24 0 237.03h25.52c7.27 0 13.15 5.88 13.15 13.15s-5.88 13.15-13.15 13.15H0c2.53 22.78 11.57 43.61 25.19 60.63l17.99-17.99c5.14-5.14 13.46-5.14 18.6 0 5.14 5.14 5.14 13.46 0 18.6l-17.99 17.99c17.02 13.62 37.84 22.66 60.63 25.19v-25.52c0-7.27 5.88-13.15 13.15-13.15s13.15 5.88 13.15 13.15v25.52c22.78-2.53 43.61-11.57 60.63-25.19l-17.99-17.99c-5.14-5.14-5.14-13.46 0-18.6 5.14-5.14 13.46-5.14 18.6 0l17.99 17.99c13.62-17.02 22.66-37.84 25.19-60.63h-25.52c-7.27 0-13.15-5.88-13.15-13.15s5.88-13.15 13.15-13.15Zm-56.45-3.85-26.3 26.3c-2.47 2.47-5.8 3.85-9.3 3.85h-26.3c-7.27 0-13.15-5.88-13.15-13.15s5.88-13.15 13.15-13.15h20.85l22.45-22.45c5.14-5.14 13.46-5.14 18.59 0s5.14 13.46 0 18.59ZM380.54 105.54h105.19c7.26 0 13.15-5.89 13.15-13.15V13.5c0-7.26-5.89-13.15-13.15-13.15H380.54c-7.26 0-13.15 5.89-13.15 13.15v26.3h-28.72c-5.45-15.27-19.9-26.3-37.02-26.3-21.75 0-39.45 17.69-39.45 39.45 0 17.12 11.03 31.58 26.3 37.02v123.19c-15.27 5.45-26.3 19.9-26.3 37.02s11.03 31.58 26.3 37.02v123.19c-15.27 5.45-26.3 19.9-26.3 37.02 0 21.75 17.69 39.45 39.45 39.45 17.12 0 31.58-11.03 37.02-26.3h28.72v26.3c0 7.26 5.89 13.15 13.15 13.15h105.19c7.26 0 13.15-5.89 13.15-13.15v-78.89c0-7.26-5.89-13.15-13.15-13.15H380.54c-7.26 0-13.15 5.89-13.15 13.15v26.3h-28.64c-3.99-11.1-12.81-19.9-23.96-23.87V287.22c11.14-3.97 19.97-12.77 23.96-23.87h28.64v26.3c0 7.26 5.89 13.15 13.15 13.15h105.19c7.26 0 13.15-5.89 13.15-13.15v-78.89c0-7.26-5.89-13.15-13.15-13.15H380.54c-7.26 0-13.15 5.89-13.15 13.15v26.3h-28.64c-3.99-11.1-12.81-19.9-23.96-23.87V89.97C325.93 86 334.76 77.2 338.75 66.1h28.64v26.3c0 7.26 5.89 13.15 13.15 13.15Z"/></svg>