<svg id="Capa_1" data-name="Capa 1" xmlns="http://www.w3.org/2000/svg" viewBox="0 0 500 500"><defs><style>.cls-1{fill:#fff}</style></defs><path class="cls-1" d="M484.98 79.56c-11.93 15.86-31.06 26.22-52.43 26.22s-40.5-10.36-52.43-26.22c-8.26 10.88-13.11 24.51-13.11 39.32v26.22c0 7.21 5.9 13.11 13.11 13.11h104.86c7.21 0 13.11-5.9 13.11-13.11v-26.22c0-14.81-4.85-28.44-13.11-39.32Z"/><circle class="cls-1" cx="432.55" cy="40.24" r="39.32"/><path class="cls-1" d="M13.11 158.2h104.86c7.21 0 13.11-5.9 13.11-13.11v-26.22c0-14.81-4.85-28.44-13.11-39.32-11.93 15.86-31.06 26.22-52.43 26.22s-40.5-10.36-52.43-26.22C4.85 90.44 0 104.07 0 118.88v26.22c0 7.21 5.9 13.11 13.11 13.11Z"/><circle class="cls-1" cx="65.54" cy="40.24" r="39.32"/><path class="cls-1" d="M432.55 446.57c-21.37 0-40.5-10.36-52.43-26.22-8.26 10.88-13.11 24.51-13.11 39.32v26.22c0 7.21 5.9 13.11 13.11 13.11h104.86c7.21 0 13.11-5.9 13.11-13.11v-26.22c0-14.81-4.85-28.44-13.11-39.32-11.93 15.86-31.06 26.22-52.43 26.22Z"/><circle class="cls-1" cx="432.55" cy="381.03" r="39.32"/><path class="cls-1" d="M65.54 446.57c-21.37 0-40.5-10.36-52.43-26.22C4.85 431.23 0 444.86 0 459.67v26.22C0 493.1 5.9 499 13.11 499h104.86c7.21 0 13.11-5.9 13.11-13.11v-26.22c0-14.81-4.85-28.44-13.11-39.32-11.93 15.86-31.06 26.22-52.43 26.22Z"/><circle class="cls-1" cx="65.54" cy="381.03" r="39.32"/><path class="cls-1" d="M249.04 131.99c-79.5 0-144.18 64.68-144.18 144.18s64.68 144.18 144.18 144.18 144.18-64.68 144.18-144.18-64.68-144.18-144.18-144.18Zm0 235.94c-50.59 0-91.75-41.16-91.75-91.75s41.16-91.75 91.75-91.75 91.75 41.16 91.75 91.75-41.17 91.75-91.75 91.75Z"/><circle class="cls-1" cx="249.04" cy="276.17" r="65.54"/></svg>