<svg version="1.2" xmlns="http://www.w3.org/2000/svg" width="500" height="500"><style>.s0{fill:#bf282e}</style><path id="Layer" class="s0" d="M167.2 233.6c6-8.6 11.9-16.8 17.6-25.1 2.7-4 1.9-8.2-1.5-10.5-3.3-2.2-7.2-1.4-10 2.2-2.2 2.8-4.2 5.9-6.3 8.9-2.8 3.9-5.6 7.8-8.6 12-4.9-7-9.5-13.5-14.1-20-3.2-4.4-7.3-5.5-10.8-3-3.7 2.6-4 6.7-.8 11.3 4.7 6.7 9.3 13.6 14.3 20.1 2.4 3.1 2.2 5.2-.1 8.2-6.2 8.4-12.1 17-18.1 25.6-2.5 3.8-1.9 7.8 1.2 10.1 3.3 2.6 7.4 1.9 10.4-1.9 1.2-1.4 2.2-3.1 3.3-4.6 4.8-6.8 9.6-13.6 14.7-20.7 1.3 1.7 2.3 2.9 3.2 4.2 4.7 6.7 9.2 13.6 14.3 20.1 1.6 2 4.7 4.1 7.2 4.2 5.8.2 8.4-6.4 4.8-11.6-6.7-9.8-13.6-19.5-20.7-29.5z"/><path class="s0" d="M117.2 211.6c5.2-.1 8.4-2.9 8.4-7.1 0-4.3-3.2-7.1-8.3-7.2q-11.9-.1-23.8 0c-6.2.1-8.8 2.4-8.8 8.6q-.1 30.2 0 60.3c0 6.5 2.6 8.8 9.1 8.8q11.2.1 22.4 0c6 0 9.3-2.6 9.4-7 .1-4.6-3.2-7.2-9.2-7.2-5.6-.1-11.3 0-17.1 0v-17.6c5.9 0 11.6 0 17.3-.1 3.4 0 6.3-1.7 6.5-5 .1-2.6-1.2-5.7-2.9-7.7-1.1-1.3-4.1-1.3-6.2-1.4-4.9-.2-9.8-.1-14.8-.1v-17.3h18zM302 260.8h-18.3v-17.7c6 0 11.6.1 17.3 0 4.1-.1 6.5-2.3 7-6.3.5-3.9-2-7-6.1-7.7-2-.3-4.1-.2-6.2-.2h-12.1v-17.3c6.6 0 12.6.1 18.6-.1 4.8-.1 7.8-2.9 7.8-7.1 0-4.1-3-7-7.8-7.1q-12.6-.1-25.1 0c-5 .1-7.9 2.7-7.9 7.6-.2 20.9-.1 41.8 0 62.7 0 4.2 2.5 7.1 6.6 7.3 9.2.3 18.4.3 27.6 0 5-.2 8-5.2 6.2-9.6-1.4-3.3-4.1-4.6-7.6-4.5zM440.1 190.8q-17.8-.3-35.6 0c-4.4.1-7.4 3.7-7 7.5.5 4.2 3 6.5 7.4 6.6h10.2v55.7c.1 5.2 2.8 8.4 7.1 8.4 4.2 0 7-3.3 7.2-8.4v-50.4c0-1.6.1-3.3.2-5.3h10c4.2-.1 6.9-2.2 7.3-6.6.4-4-2.3-7.4-6.8-7.5z"/><path fill-rule="evenodd" class="s0" d="M473.6 197.5c.8 23.2.8 46.3.1 69.5-.7 21.8-17.2 37.6-39.2 38.8-3.7.2-7.5 0-11.8 0 .8 4.7 1.8 8.6 2.2 12.7 1.5 15.8-.9 31-8.5 45-1.8 3.2-1.7 5.6-.2 8.8q13.8 30.5 27.1 61.2c5.5 12.6-1.2 25.5-14.2 27.5-3.4.5-7.3-.2-10.7-1.3-17-5.3-34-10.9-51-16.4-1.4-.5-2.7-.8-4.4-1.3-.8 1.6-1.7 3-2.4 4.6-6.8 15.3-13.9 30.5-20.4 46-3.3 7.6-7.9 13.2-16 15.5h-7.6c-8-2.5-12.5-8.2-15.7-15.8-6.8-16.2-14.1-32.1-21.3-48.2-.5-1.2-1.2-2.4-1.9-3.7-16.8 5.5-33.3 5.3-49.9.1-.9 2-1.7 3.7-2.5 5.4-6.9 15.4-14 30.8-20.5 46.4-3.1 7.6-7.7 13.3-15.7 15.9h-8.5c-8.2-3.1-12.5-9.4-15.8-17.2-6.9-16.3-14.4-32.4-21.8-49-1.6.4-3 .8-4.5 1.2-17 5.6-34 11-51 16.6-8.5 2.9-16 1.8-22.1-4.9-6.2-6.7-6.3-14.5-2.6-22.6 2.3-4.9 4.3-9.8 6.6-14.7 2.2-4.8 5.9-6.6 9.8-4.9 4.1 1.9 5.4 5.8 3.2 10.9-2.2 5.1-4.8 10-6.6 15.2-.7 1.9-.7 5.1.4 6.4 1.1 1.3 4.4 1.7 6.3 1.1 19.8-6.2 39.5-12.7 59.2-19.1 7.4-2.4 9.7-1.4 12.9 5.8q12.5 27.8 24.9 55.5c1.2 2.7 2.3 6 5.7 5.1 2.2-.5 4.5-2.9 5.5-5 7.6-16.7 14.9-33.6 22.4-50.4.5-1.1.9-2.3 1.4-3.7-13.5-8-24-18.7-31.3-33-30.9 8.9-58.1 2.2-81.9-20.5-1.6 3.5-3 6.8-4.5 9.9-2.1 4.4-5.8 6.1-9.6 4.4-3.9-1.7-5.3-5.6-3.5-10 2.1-5 4.5-9.8 6.5-14.8.5-1.4.8-3.5.1-4.8-9.9-18.2-12.2-37.4-7.6-57.5.1-.5.1-.9.2-2.2H74c-21.1-.5-37-12.9-41.3-32.4-.8-3.4-1-7-1-10.4 0-20.3-.1-40.6 0-60.9.2-21.7 13.3-38.2 33.5-41.8 5.7-1.1 11.6-.7 17-1-.5-8.3-1.8-16.3-1.6-24.3C82 86.1 129.3 50.6 177 62.8c4.4 1.1 6.6.6 9.1-3.6 30.7-51.3 104.7-50.4 134.5 1.4.6 1.1 1.3 2.1 1.9 3.2 6-1 11.9-2.3 17.8-3 12.7-1.6 24.9.6 36.7 5.4 5 2 6.9 5.5 5.3 9.5-1.5 4.3-5.4 5.7-10.6 3.6-16.3-6.3-32.5-6.3-48.7.1-6.2 2.5-8.8 1.1-11.9-5.9-19.4-43.3-76.8-51.6-107-15.2-4 4.8-6.9 10.5-9.8 16.1-3.2 6-5.7 7.3-12.1 4.9-39-14.8-79.1 7.6-86.7 48.5-1.8 9.6-1 19.2 1.7 28.6.8 2.6 2.1 3.5 4.8 3.4 8.5-.1 17.1-.2 25.6.1 3.5.1 5.4-1.1 7.3-4 23.1-34.4 55.1-56.2 96-62 58.6-8.2 105.2 13.2 139.4 61.4 2.5 3.4 4.7 4.7 8.8 4.6 7.9-.3 15.9-.3 23.8 0 3.5.1 5.1-1.1 5.9-4.4 4.8-19.4 2-37.4-9.4-53.9-.7-1.1-1.5-2.1-2.2-3.1-2.8-3.9-2.5-8.1.7-10.6s7.5-1.8 10.5 1.8c9.7 12.3 15.8 26.1 16.5 41.8.5 9.2-.7 18.5-1.2 28.4 3.3 0 7.2-.2 11.1 0 20.8.8 38.1 16.9 38.8 37.7zm-324.3-30.6h206.8c-26.5-34.5-60.5-53-103.1-53-42.9-.1-77 18.4-103.7 53zm162.4 226.9c4.2-8.6 5.5-9.2 14.6-6 24.1 8.3 46.2 4.4 65-12.8 18.8-17.2 24.4-38.9 18.6-63.6-.8-3.6-2.4-4.9-6.1-4.8-7.9.3-15.9.3-23.8 0-4.1-.2-6.4 1.2-8.7 4.7-53.6 80.7-170.9 84.8-229.2 7.5-7.1-9.3-13.4-15.3-25.4-12.1-4.3 0-8.6.3-12.9-.1-3.8-.3-5.2 1.4-6 4.9-5.8 24.7-.2 46.4 18.7 63.5 19 17.3 41.2 21.2 65.4 12.6 8.3-3 10.2-2.1 14 5.8 11.6 24 30.8 37.2 57.5 37.4 27 .1 46.4-12.9 58.3-37zm-45-36.2c33.7-3.5 80-30.6 88.3-52.6H150.1c21.6 31.8 65.3 57.8 116.6 52.6zM406.3 385c-.6-1.3-1.2-2.4-2-4-23.4 22.4-50.4 29.4-81.7 20.4-7.3 14.3-17.9 25.1-31.5 33.2 8 18.2 15.8 36 23.9 53.6 1 2.3 3.6 5.2 5.6 5.2 1.9 0 4.6-2.9 5.6-5.1 8.5-18.5 16.8-37.2 25.2-55.8 2.9-6.6 5.3-7.7 12.3-5.4 19.4 6.3 38.7 12.6 58.1 18.9 2.7.9 6.1 2.4 7.7-.7 1.1-2.1.9-5.6-.1-7.8-7.5-17.6-15.4-35.1-23.1-52.5zm53.4-179.6c0-2.9-.2-6-1-8.9-3.3-12.3-13.5-19.5-27.5-19.5H75c-18.2 0-28.9 10.8-29 29q-.1 29.7 0 59.4c0 18.3 10.7 29.2 28.8 29.2q178.1.1 356.2 0c17.9 0 28.7-10.9 28.8-28.8q.1-30.2-.1-60.4z"/><path fill-rule="evenodd" class="s0" d="M370.6 261.9c3.7 4.3 3.8 8.3.4 11.3-3.4 2.9-7.4 2.3-11.2-2-6.7-7.5-13.3-15.1-21-23.9 0 7.7.1 14-.1 20.2-.2 5.8-5.3 9.1-10.1 6.7-3.5-1.8-4.1-5-4.1-8.5v-54.1c0-2.2 0-4.5.1-6.7.2-5.4 2.5-8 7.8-8.2 6.3-.1 12.7-.3 18.9.3 11.9 1.1 20.3 9.4 22 20.8 1.5 10.2-4.8 20.2-15.4 24.7-.8.4-1.6.8-3.1 1.4 5.6 6.3 10.7 12.1 15.8 18zm-19.1-34.3c4.4-.6 7.9-4.6 8.1-8.7.2-3.9-2.7-8.3-6.9-9.1-3.7-.8-7.5-.7-11.3-.7-.7 0-2 1.5-2.1 2.3-.1 5.3-.1 10.7-.1 16.2 4.5 0 8.4.4 12.3 0zM232.8 197.2c12.6 1.6 22.2 12.8 21.8 25.3-.4 12.9-10.5 23.5-23.4 24.4-4.1.2-8.2 0-12.8 0 0 7.2.1 13.6-.1 20.1-.1 5.1-3.6 8.5-8 7.9-4-.5-6.1-3.4-6.2-8.7V212c0-15.2.1-15.4 15.4-15.3 4.4 0 8.9-.1 13.2.5zm.4 12.6c-4.5-.9-9.3-.8-14.1-1.1v21.8c4.4 0 8.4.3 12.2 0 5.1-.5 9-4.9 9.4-9.9.4-4.6-2.8-9.8-7.5-10.8z"/></svg>