<svg id="Capa_1" data-name="Capa 1" xmlns="http://www.w3.org/2000/svg" viewBox="0 0 500 500"><defs><style>.cls-1{fill:#fff}</style></defs><path class="cls-1" d="m489.28 121.86-37.35-37.35c14.04-15.07 15.16-38.26 2.35-53.44C446.73 22.1 435.82 17 424.63 17h-.52c-10.22-.1-20.62 3.94-28.17 11.52L147.82 276.63a105.957 105.957 0 0 0-41.22-8.36C48.37 268.27 1 315.64 1 373.87s47.37 105.6 105.6 105.6 105.6-47.37 105.6-105.6c0-14.18-2.87-28.26-8.37-41.24l117.44-117.45 37.34 37.34c9.98 9.98 27.35 9.98 37.33 0l18.68-18.67c10.28-10.29 10.28-27.04 0-37.32l-37.34-37.34 18.67-18.67 37.34 37.34c9.97 9.98 27.35 9.98 37.34 0l18.67-18.67c10.29-10.29 10.29-27.04 0-37.34ZM106.6 426.67c-29.11 0-52.8-23.68-52.8-52.8s23.69-52.8 52.8-52.8 52.8 23.68 52.8 52.8-23.69 52.8-52.8 52.8Z"/><circle class="cls-1" cx="106.6" cy="373.87" r="26.4"/></svg>