<svg version="1.2" xmlns="http://www.w3.org/2000/svg" width="500" height="500"><style>.s0{fill:#bf282e}</style><path id="Layer" fill-rule="evenodd" class="s0" d="M292.5 500c-.4-.3-.8-.7-1.2-.8-30.1-5-42.2-40.5-36.9-61.8 4.2-17.2 7.8-34.5 6.8-52.4-.6-9.7-2.2-19.3-3.2-29-1.4-14.8-1.9-29.4 2.3-44 2.9-10.2.3-19.6-7-26.9-5.1-5.2-11.4-9.2-17.3-13.3-7.4-5.3-15.4-9.8-22.6-15.3-16.6-12.8-22-29.7-15.8-49.7 2.7-8.8 6.7-17.2 10.6-25.6 5.7-12.4 4.2-18-7.8-24.7-4.8-2.7-10-4.7-15-6.9-6.7-3.1-12.2-7.2-15.3-14.2-.8-1.8-3.6-3.3-5.7-3.9-8.3-2.3-16.7-3.9-25-6.3C98 113.3 73.3 84.9 60.5 44.8c-2.4-7.7-4.3-15.6-6.4-23.5-1.7-6.1-.7-11.6 4-16.1 4.5-4.2 10-5.6 15.8-3.3 7 2.8 14.1 5.7 20.8 9.3 7.5 4.1 13.1 10.5 16.7 18.5 2.5 5.6 6.6 8.8 13.1 9.2 10.1.7 13.6 3.8 16.1 13.7 1.9 7.1 3.2 14.3 5.4 21.2 2.8 8.9 5.1 9.7 14.2 9.2 7.6-.4 15.3-.5 22.7.7 10.8 1.8 17.5 8.5 19.7 19.6.9 4.4 2.5 8.7 4.1 12.9 1.4 3.5 4.3 4.8 8 3.6 9.1-3 15.9.4 21.1 7.8 2.5 3.6 4.8 3.7 7.9 1.1 2.7-2.4 5.5-4.6 8.1-7 .7-.7 1.4-1.9 1.4-2.9.1-7.7.1-15.5.1-23.4-5.4-1.7-10.7-3.6-16.2-4.9-6.3-1.5-11.4-4.7-14.8-10.2-4-6.2-9.4-9.1-16.9-9.5-20.8-1.4-27.8-15.6-27.1-32.8.4-9.7 8.7-15.1 18-12.1 4.8 1.6 9.7 4 13.7 7.1 11.1 8.4 23.5 12.1 37.3 11.8 4.9-.1 9.7-.4 14.6-.4 3.7 0 8-.7 11.1.7 5.6 2.7 8.9.2 13.1-2.9 48.2-37 119.5-10.8 132.8 48.5.4 1.4.7 2.8.8 4.3.3 4.1-1.7 7-5.7 7.9-4 .9-7-1-8.3-4.9-.9-2.4-1.3-5-2-7.5-8.9-32.3-38.9-53.1-73-50.5-32.3 2.4-58.8 28-62.8 60.6-3.5 28.8 10.5 56.3 36.1 69.9 5.6 3 9.6 6.9 12.6 12.4 6.4 11.8 13.2 23.5 20.1 35.7 1-1.5 1.8-2.6 2.5-3.8 6.2-11 12.1-22.2 18.8-33 2.5-4 6.3-8 10.4-10.3 17.2-9.6 29-23.3 35-41.9 1.8-5.5 5.4-7.9 9.6-6.6 4.4 1.4 6.1 5.5 4.3 11.2-5.3 16.8-14.9 30.6-28.7 41.4q-2.2 1.8-4.5 3.6c-.2.1-.2.3-.4.6 3.2 6.7 8.8 10.3 15.9 12.2 8.5 2.2 17.1 4.1 25.3 7 18.7 6.8 24.9 18.8 18.9 37.8-2.1 6.8-6.2 13.1-10.3 19.1-3.4 5.1-7.9 9.4-12 14-10.7 12-18 25.7-21.8 41.4-1.2 4.7-3 9.3-5 13.7-1.8 4-5.7 5.3-9.3 3.8-3.8-1.7-5.3-5.5-3.9-9.8 2-6.1 4.2-12.3 6-18.5 4.9-16.5 14.1-30.5 25.5-43.2 4-4.3 8.2-8.5 11.3-13.4 2.9-4.7 5.3-10.1 6.4-15.5 1.8-8.1-.2-11.4-7.9-14.4-6.8-2.6-13.8-4.8-20.9-6.3-12.5-2.8-23.5-7.5-30.6-19.9-3.5 6-6.5 11.4-9.6 16.8-4.6 8.1-9 16.2-13.7 24.2-5.7 9.9-16.6 9.9-22.4 0-7.5-13.1-14.8-26.3-22.3-39.4-1.2-2-2.9-4-4.9-5.1-19.1-10.2-32.7-25.3-40.5-45.6-.2-.4-.5-.8-.9-1.5-2.4 1.6-4.7 3.4-7.1 4.9-9.5 5.8-17.4 4.6-24.4-4.2-2.6-3.2-4.7-4.7-9.3-3.6-9.4 2.2-17.4-1.7-21.9-10.4-2.6-5.2-4.3-10.9-5.9-16.5-1.9-6.8-4.2-9.5-11.2-9.9-5.9-.4-12-.3-17.9.4-10.5 1.1-19-2.1-23.6-11.7-3.6-7.6-5.9-16.1-7.8-24.4-1.2-5.4-2.5-8.8-9-9.1-8.9-.5-14.7-6.3-19-13.6-8.3-13.9-15.5-19.4-31.2-23.3-.2.4-.6.8-.5 1.2 4.6 17.5 8.5 35.3 18.3 51 15.8 25.3 38.5 40.3 67.6 46 6 1.2 12 2.9 17.8 4.7 5.5 1.7 9.4 5.3 11.9 10.8 1.1 2.4 3.6 4.5 6 5.9 3.5 2 7.5 3.1 11.1 5 4.3 2.2 8.7 4.4 12.5 7.4 13.7 10.5 16.2 21.5 9.1 37.2-4.7 10.3-10.5 20.2-12.2 31.7-1.6 10 1 18.6 8.5 25 6.3 5.4 13.3 9.9 20.1 14.6 6.9 4.8 14.4 8.9 20.7 14.4 14.5 12.9 19.5 28.9 14.2 48-4 14.4-2.7 29.1-.3 43.5 4.2 25.8 2.3 51.1-4.4 76.2-3.7 14 0 26.7 9.1 37.7 5.1 6.1 12 8.9 19.8 9.2 2.4.1 4.9-.8 8-1.4-1-1.1-1.3-1.6-1.6-1.7-11.2-3.9-16.3-12.9-16.5-23.6-.3-14.6.8-29.2 2.2-43.7.9-8.9 6.6-15.3 14.6-19.5 1.7-.9 3.4-1.9 5.2-2.6 12.5-4.4 19.8-13.3 23.5-25.9 3.8-12.8 11.9-22.1 23.7-28.4 4.7-2.5 8.8-1.8 11.1 1.9 2.4 3.9 1 8.1-4 10.8-8.7 4.7-14.4 11.6-17.1 20.9-4.9 16.3-14.9 28-31 33.9-8.1 3-12.3 8.5-12.7 17.1-.4 11.1-1.1 22.3-1.1 33.5 0 5.8 2.6 10.3 8.8 12.6 5.9 2.2 9.4 7 9.5 13.5 0 6.7-3.7 11.3-9.4 14.4-2.2 1.2-4.7 2-7 2.9h-11.7zM193 39.6c-.1 11.8 3.8 16.2 14.8 16.8 9.4.6 17.9 3.4 23 11.5 6.4 10.1 17 9.9 26 13.1 4-7.5 7.6-14.5 11.1-21-13-.8-26.1-1.1-39.1-2.4-13.7-1.5-23.8-11.1-35.8-17.9z"/><path fill-rule="evenodd" class="s0" d="M337.5 160.3c-27.6.6-51.1-22.1-51.7-50.1-.6-27.4 21.8-51.1 48.9-51.8 29.1-.7 52.5 21.4 53.2 50 .6 28-22 51.2-50.4 51.9zm-.8-87.3c-19.9 0-36.3 16.4-36.3 36.2 0 20.1 16.6 36.6 36.6 36.5 20-.2 36.2-16.4 36.3-36.3 0-20.1-16.5-36.5-36.6-36.4z"/></svg>