<svg version="1.2" xmlns="http://www.w3.org/2000/svg" width="500" height="500"><style>.s0{fill:#bf282e}</style><path id="Layer" fill-rule="evenodd" class="s0" d="M500 117.9c-2.6 10.9-7.8 19.9-18.3 25-8.3 4.2-17.1 5.1-25.8 1.5-3.4-1.4-5.5-.9-8 1.7-7.5 7.9-15.4 15.4-23 23.2-3.5 3.6-7.4 5.3-12.5 5.2-25.5-.1-51 0-76.5 0h-4.8c5.3 7.8 10.7 15.3 15.6 23 2.5 3.9 4.2 8.4 6.1 12.7 2.8 6.5.9 12-4.7 14.3-5.3 2.2-10.5-.2-13.1-6.6-7.5-18.5-19.5-33.2-36.3-43.9-55.4-35.2-128.9-1.2-138 63.8-7.4 53.6 32.7 101.4 86.8 103.3 9.5.4 12.7 3.7 12.7 13.3q.1 10.7.1 21.5c0 .2.2.5.6 1.3h5c31.1 0 62.3.2 93.5-.1 6.7 0 10.8 2.5 14 8.4 8.4 15.9 17.3 31.5 25.8 47.4 1.4 2.6 2.8 3.2 5.7 2.4 18.3-5.1 36 4.8 41.2 22.8 4.9 17.2-5.2 35.2-22.9 40.5-1.4.4-2.7.9-4.1 1.4h-9.7c-.8-.3-1.5-.7-2.3-.9-21.8-6-31.5-26.6-22.4-47.3.6-1.5.3-4.1-.5-5.6-8.2-15.3-16.7-30.5-24.9-45.8-1.5-2.8-3.2-3.7-6.4-3.7-29.4.1-58.8 0-88.1.1-1.4 0-2.9.1-4.6.2v5.7c0 28.1 0 56.1.1 84.2 0 6.2-1.8 10.8-7.9 13.1h-47.7c-6-2.4-7.9-7-7.8-13.2.2-7.8.2-15.6 0-23.4-.1-1.3-1.2-3.6-2.3-3.9-19.2-5.2-37.3-12.9-54.8-23.2-6.4 6.5-12.7 12.9-19 19.2-6.7 6.7-11.5 6.6-18.3-.1q-28.6-28.6-57.1-57.3c-6.7-6.6-6.6-11.4.2-18.2 6.2-6.2 12.5-12.3 17.9-17.6-8.2-19.7-16.1-38.6-24.3-58.4H14.3c-9.9 0-13.3-3.4-13.3-13.1v-80.9c0-9.1 3.6-12.7 12.6-12.8 7.9-.1 15.9.1 23.9-.1 1.3-.1 3.5-1.2 3.8-2.3 5.3-19.2 13-37.4 23.2-54.7-6.5-6.4-12.9-12.7-19.1-19.1-6.6-6.5-6.6-11.4-.2-17.9q28.7-28.8 57.5-57.5c6.6-6.6 11.4-6.6 18-.1 6.3 6.3 12.5 12.8 17.8 18.2 19.9-8.2 38.8-16 58.5-24.2 0-7.7-.1-16.6 0-25.5C197 4.4 200.5 1 210 1h38c8.6 0 12.2 3.6 12.2 12.2v90.5h5.7c28.8 0 57.5 0 86.3.1 3.7 0 5.8-1 7.5-4.4 7.8-14.6 15.9-29.1 24-43.5 1.7-2.9 1.9-5.2.4-8.4-6.6-14.3-1.9-30.8 10.9-40.3 12.2-8.9 29.1-8.1 41 2.1 11.6 10 14.6 26.8 7.3 40.4-7.4 13.7-23.1 20.5-38.1 16-3.5-1-4.8 0-6.4 2.8-8.5 15.7-17.3 31.2-25.7 47-2.9 5.5-7 7.8-13.2 7.8-31.2-.2-62.4-.1-93.6-.1h-5.9v17.5c4.1.7 8.4.9 12.3 2.2 9.5 3.1 18.8 6.8 28.3 10.1 2.7.9 5.5 1.9 8.3 1.9 32.5.1 65 0 97.5.2 3.6 0 6-1.1 8.4-3.6 6.4-6.7 13-13.3 19.6-19.7 2-1.9 2.8-3.6 1.5-6.3-7-14.3.1-36.6 20-43.3 18.2-6.1 37 4 42.5 22.8q.6 2.1 1.2 4.1v8.8zM216.5 20.6v24.2c0 9.5-1.7 12-11.1 14.2-21 5-40.6 13.2-59 24.5-7.9 4.9-10.9 4.3-17.5-2.3l-16.6-16.6c-16.2 16.1-31.9 31.8-48.2 48.1C69.5 118 75.3 123.4 81 129c6.7 6.6 7.2 9.6 2.4 17.5-11.5 18.7-19.7 38.6-24.8 59.9-2 8.3-4.6 10.2-12.9 10.2H20.8v67.8h25.5c7.4.1 10.4 2.2 12.1 9.4 5.2 21.8 13.6 42.3 25.3 61.3 4.4 7.1 3.8 10.4-2.2 16.4-5.8 5.8-11.7 11.6-17.4 17.3 16.2 16.1 31.9 31.8 47.9 47.9 5.6-5.6 11.3-11.4 17.1-17.1 6.4-6.4 9.5-6.9 17.1-2.3 18.5 11.5 38.3 19.7 59.4 24.8 9.1 2.2 10.8 4.7 10.8 13.9v24.2h24.1V360.4c-26.7-2.9-49.7-13.5-68.5-32.6-18.9-19.3-30.8-42.5-31.2-69.4-1.1-67.8 35.2-105.3 99.6-118.8v-119h-23.9zM427.8 34c0-7.4-6.3-13.6-13.7-13.5-7.4.1-13.6 6.3-13.5 13.7.1 7.5 6.3 13.6 13.7 13.5 7.4 0 13.6-6.3 13.5-13.7zm-13.7 446.5c7.4 0 13.7-6.1 13.7-13.5.1-7.4-6.1-13.7-13.5-13.7-7.4-.1-13.6 6-13.7 13.5 0 7.4 6.1 13.6 13.5 13.7zM466.8 127c7.5 0 13.7-6 13.7-13.5 0-7.4-6.1-13.5-13.6-13.5s-13.6 6-13.6 13.5c-.1 7.5 6 13.5 13.5 13.5z"/><path fill-rule="evenodd" class="s0" d="M500 391.8c-2.6 10.9-7.9 19.8-18.2 25.1-12 6.2-26.6 4.3-37.1-5-9.9-8.7-13.7-23.2-8.7-35.5 1.3-3.4.8-5.4-1.8-7.9-6.8-6.5-13.2-13.4-20.1-19.8-1.5-1.5-4.1-2.6-6.3-2.6-20.4-.2-40.9-.1-61.3-.1-6.3 0-10.1-2.7-11.2-7.4-1.5-6.8 3-12 10.8-12.1 19.6 0 39.3.6 58.9-.2 10.5-.4 18.4 2.4 25.1 10.5 5.7 6.8 12.4 12.8 18.9 18.9 1.2 1.1 4 1.8 5.4 1.2 18.3-7.8 40.6 3.4 44.8 23.9.2.7.5 1.5.8 2.2v8.8zM466.9 374c-7.6 0-13.6 6-13.7 13.5 0 7.4 6.1 13.5 13.6 13.5 7.5.1 13.7-6 13.7-13.5 0-7.4-6.1-13.5-13.6-13.5zM500 255.4c-2.7 10.4-7.7 19.1-17.6 24.3-16.8 9-37.9 2.1-45.5-15.4-1.5-3.3-3.2-4.1-6.5-4-7.6.2-15.2.1-22.9 0-6.4-.1-10.7-4-10.8-9.5-.1-5.5 4.2-9.7 10.5-9.9 8.1-.2 16.2.1 24.3-.2 1.7-.1 4-1.3 4.7-2.7 6.6-13.4 19-21.5 32-20.4 15.6 1.2 26.7 10.4 30.9 25.8.2.8.6 1.5.9 2.2zm-19.5-4.7c-.1-7.4-6.3-13.7-13.7-13.7-7.4 0-13.6 6.3-13.5 13.7 0 7.5 6.1 13.5 13.6 13.5s13.6-6.1 13.6-13.5z"/><path class="s0" d="M250.4 324.6c-40.3 0-73.3-32.3-74-72.5-.7-40.5 31.2-74.2 71.5-75.5 7-.2 11.8 3.4 12.2 9.2.3 5.7-4.2 9.8-11.2 10.2-31.7 2-54 26.2-53 57.5.9 26.5 23.6 49.8 50 51.5 28.7 1.8 54.1-17.9 58.2-45.1.4-2.9.7-5.8.9-8.7.5-6.3 4.7-10.6 10.1-10.3 5.5.3 9.5 4.8 9.3 11.1-.4 14.4-4.5 27.8-12.5 39.8-13.6 20.4-36.9 32.8-61.5 32.8zM360.5 250.5c0 5.4-4.7 9.9-10 9.7-5.2-.2-9.4-4.6-9.4-9.9.1-5.5 4.6-9.8 10-9.6 5.2.1 9.5 4.6 9.4 9.8zM304.6 326.6c5.2.1 9.5 4.6 9.4 9.8-.1 5.3-4.5 9.6-9.7 9.5-5.2-.1-9.5-4.5-9.4-9.8.1-5.2 4.6-9.6 9.7-9.5zM97.4 245c1.3-58.8 39.9-114.1 95.1-136.2 6.3-2.5 11.7-.9 14.1 4.3 2.4 5.3.1 10.8-6.5 13.5-20.5 8.7-38.3 21.2-52.5 38.4-19.3 23.5-29.4 50.4-30.6 80.8-.1 2.1-.2 4.2-.6 6.3-1 5.1-5.2 8.4-10 8-5-.3-8.7-4.3-9-9.7-.1-1.8 0-3.6 0-5.4z"/></svg>