<svg version="1.2" xmlns="http://www.w3.org/2000/svg" width="500" height="500"><style>.s0{fill:#bf282e}</style><path id="Layer" fill-rule="evenodd" class="s0" d="M144.1 270.5h-9.2c-16.6 0-33.2.1-49.7 0-10.6 0-19.8 3.2-27 11.2-5.3 5.9-7.3 12.9-7.2 20.7 0 15.7.1 31.5-.2 47.2 0 2.7-1.1 6-3 7.7-1.6 1.4-5.5 1.9-7.5.9-2.2-1-4.2-4.1-4.6-6.6-.8-4.7-.3-9.7-.3-14.6 0-11 .3-22.1-.1-33.1-1-32.1 25.5-48.9 46.7-48.8h8.8c-1.3-1.5-1.7-2.2-2.3-2.8-13.7-13.7-19-30.5-16.5-49.3 3-22.7 23.3-37.8 46-35.3 21.6 2.4 37.9 22.3 36.4 44.4-1.2 17.6-5.1 26.5-18.9 42.5 5.4.3 10.5.8 15.7.9.8 0 2-.9 2.6-1.7 14.9-17.6 34.3-25 56.9-24.7 3.3.1 6.5 0 11.2 0-2-1.7-3.1-2.6-4.2-3.5-21.3-17.2-32.8-61.9-19.2-87.6 12.5-23.7 39.7-36.4 65.7-29.4 26 6.9 43.8 31.5 42.4 58.2-.8 15.2-4 29.7-12.2 42.6-4.4 7-10.3 13.1-15.6 19.7 2.1 0 5 .1 8 0 17.8-.5 34.1 3.6 48.3 14.8 1.7 1.4 3.9 2.7 5 4.5 5.8 9.9 14.8 6.4 23.9 6.1-12.8-11.3-18.3-25.3-19.3-41.3-1.1-17.3 5.4-31 20.3-39.8 14.6-8.6 29.6-8.3 43.8.9 14.5 9.5 20.3 23.6 18.7 40.7-1.5 15.2-6.8 28.6-19.3 39.6 4 .2 7.1.4 10.3.5 26.2 1.6 45 21.2 45.1 47.4.1 15.5.2 31.1-.1 46.7 0 2.8-1.3 6.3-3.2 8.1-1.6 1.5-5.8 2-7.5.9-2.2-1.5-4.4-4.9-4.5-7.6-.5-15.1-.2-30.2-.3-45.3 0-4.2-.1-8.6-1.2-12.5-3.6-12.3-12.5-20.6-24.7-21.3-22-1.3-44.1-.4-66.2-.4 5.6 25.3 1.9 51 3 76.5 0 1.6 0 3.3-.2 4.9-.5 3.8-2.9 6.1-6.7 6.5-3.8.4-6.8-1.2-8-4.9-.6-1.8-.7-3.9-.7-5.8 0-17.5-.7-35.1.1-52.6 1.4-28.5-21.5-50.2-49.1-50.8-29.8-.6-59.7-.5-89.6 0-24.2.5-44 17-48.2 39.2-.6 3.2-.7 6.4-.7 9.7v54.5c0 2-.1 4-.7 5.8-1.3 3.7-4.2 5.3-8 4.9-3.9-.4-6.2-2.7-6.8-6.5-.2-1.5-.1-3-.1-4.4 0-12.4-.1-24.7 0-37 .2-13.3-1.5-26.7 3.9-40.6zm103.7-49c15 0 24.7-6.5 31.9-17.3 7.8-12.1 11.1-25.6 11.4-39.7.3-21.1-15.4-39.3-35.6-41.7-22-2.8-42.2 10.2-46.2 31.7-4 21.7 1.7 41.6 17.2 57.9 6 6.4 14 9.1 21.3 9.1zm-108.9-11.6c.3-13.5-9.7-25.3-22.7-26.6-14.1-1.5-26.4 7.2-28.7 21.1-2 11.8 1.1 22.9 8.2 32.6 9 12.3 25 12.3 34.3.2 6.2-8 8.5-17.4 8.9-27.3zm247.5-26.8c-13.6-.1-24.8 9.7-26 23.3-1 11.1 1.7 21.6 8.5 30.6 9.4 12.5 25.5 12.3 34.7-.3 6.4-8.7 9-18.7 8.4-29.3-.7-13.7-12-24.2-25.6-24.3z"/><path fill-rule="evenodd" class="s0" d="M312.1 313.2c-1.5 9.3 1.2 16.7 9.1 22.3 4.1 2.9 4.5 7.2 2.5 11.8-.9 2-1.5 4.2-2.3 6.4-3.3 9.1-1 16 8.2 19.2 9.8 3.4 14.2 9.1 12.6 19.5-.6 4-.2 8.1-.1 12.2.1 4-1.6 6.8-5.2 8.5-2.9 1.3-5.6 2.8-8.5 3.8-3.9 1.3-5.8 3.9-7.4 7.6-1.4 3.6-1.5 6.7-.1 10.2 6.4 16.1 5.6 14-5.4 25-12.8 12.8-9.7 12.4-27 6.1-6.1-2.2-13.6 1-16.4 7-7.6 16.4-5 14.4-23 14.5-17.2 0-14.7 1.4-21.9-13.9-3.3-7.1-10.2-10-17.4-7.3-16.6 6.3-14.1 5.6-25.4-5.6-12.6-12.5-12.3-9.6-6-26.6 2.3-6.2-.8-13.8-6.7-16.5-16.6-7.6-14.7-5.1-14.8-22.9 0-17.6-1.4-14.9 14.2-22.2 6.6-3.1 9.7-10.4 7.1-17.1-6.3-16.7-5.8-14 5.6-25.9 1.7-1.7 2.8-4.7 2.9-7.1.4-6.5.1-13 .2-19.5.1-5.5 3-8.7 7.7-8.7 4.7.1 7.7 3.2 7.8 8.7.2 4.9-.2 9.8.2 14.6.2 1.6 1.7 3.7 3.2 4.4 4.8 2.3 9.5 4.3 15.1 1.1 3.1-1.8 4.9-3.7 6.4-6.8 6.9-15.2 4.6-13.9 21.4-13.9 18.8.1 15.7-2 23.6 15.1 2.5 5.3 10.4 8.5 15.8 6.6 1.4-.5 2.7-1.2 4.2-1.5 3.4-.7 4.6-2.7 4.3-6.2-.3-4.6-.2-9.1 0-13.7.2-5.3 3.4-8.5 8.1-8.4 4.5.2 7.3 3.3 7.4 8.5.1 3.6 0 7.1 0 10.7zm-62.8 158.3c5.1 1.7 7.1-1.2 8.9-5.4 1.5-3.6 3-8.2 5.9-9.7 9.9-5.1 19.9-12 31.7-4.5 4.2 2.7 6-.8 8.4-3 2.5-2.2 4.3-4.2 2.6-8.1-1.8-4.1-4.4-9.2-3.3-12.9 3.2-10.4 5.4-22.2 18.8-25.3 3.4-.8 4.7-2.9 4.3-6.4-.5-3.6 1.4-7.9-4.2-9.3-8.7-2.3-13.7-8.1-15.9-16.6-.2-.6-.4-1.3-.7-1.8-3.4-5.5-3.3-11-.4-16.6.6-1.2.8-2.5 1.4-3.6 2.6-4.3-1.1-6-3.3-8.4-2-2.3-3.8-4.3-7.7-2.5-4 1.8-9.2 4.5-12.8 3.4-10.4-3.1-22.4-5.2-25.5-18.6-1-3.9-3.5-4.8-7.2-4.5-3.6.3-7.2-.7-8.9 4.4-1.3 4-3.2 9.2-6.5 10.9-9.7 5.3-19.9 12.1-31.7 4.6-4.1-2.7-5.9.7-8.4 2.9-2.5 2.3-4.3 4.2-2.5 8.2 1.8 4 4.3 9.2 3.2 12.8-3.1 10.4-5.4 22.3-18.8 25.4-4.1.9-4.5 3.8-4.2 7.3.2 3.5-.9 7.1 4.2 8.4 8 2.2 12.4 7.7 15.7 15.6 3.4 8 4.3 15.1-.1 22.5-2.5 4.3.6 6.1 2.8 8.5 2.4 2.6 4.3 4.9 8.6 2.7 3.6-1.9 8.5-4.3 11.9-3.3 10.1 3.3 22.2 4.6 25.5 17.8 1.1 4.2 3.5 6.6 8.2 5.1zM228.3 97.7c-6 .1-9.5-4-8.8-9.4.8-5.5 2-10.9 2.4-16.4.1-2.1-.7-4.7-2.1-6.3-3.4-4.1-7.7-7.5-11-11.7-1.7-2.3-3.2-6.2-2.4-8.6.8-2.3 4.4-4.5 7.1-5.3 5.1-1.5 10.6-1.8 15.7-3.1 1.9-.5 4.1-1.9 5.1-3.6 2.9-4.7 5.2-9.7 7.8-14.5 3.9-6.9 10.9-6.9 14.8 0 2.7 4.8 5 9.8 7.8 14.5 1 1.6 3.2 3.1 5.1 3.6 5.5 1.3 11.2 1.9 16.7 3.1 6.9 1.4 9.1 8 4.5 13.3-3.8 4.2-8.1 8-11.8 12.3-1.3 1.6-2.2 4.2-2 6.3.3 5.2 1.8 10.3 2 15.4 0 2.9-.8 7.1-2.8 8.5-2.2 1.5-6.5 1.4-9.3.4-5.1-1.7-9.6-4.8-14.5-6.8-1.8-.7-4.4-.7-6.2 0-4.8 2-9.3 4.5-14 6.8-1.6.7-3.3 1.2-4.2 1.5zm21.4-59.1c-3.3 9.9-9.9 14.1-19.7 13.9 3.1 4 6.6 7 7.9 10.7 1.2 3.8.2 8.3.2 13.3 7.7-6.6 15.5-6.1 23.7-.3-3.2-9.8-.5-17.2 7.6-23.3-10-.1-16.7-4.2-19.7-14.3zM82.9 128.5c.7-5.3 1.2-10.8 2.4-16.2.8-3.5-.2-5.8-2.6-8.1-3.7-3.4-7.5-6.9-10.4-10.9-1.8-2.3-3.3-6.2-2.5-8.5.8-2.4 4.3-4.7 7.1-5.5 5.3-1.5 10.9-1.8 16.2-3.1 1.8-.4 3.7-1.9 4.6-3.4 2.8-4.7 5.1-9.8 7.8-14.6 3.9-6.9 10.9-6.8 14.8.1 2.4 4.2 4.9 8.4 6.8 12.9 1.6 3.8 4.1 5.3 8 5.7 4.7.5 9.4 1 13.9 2.4 2.7.9 6.2 3.1 7 5.5.8 2.4-.7 6.3-2.5 8.6-3.1 4.1-6.9 7.7-10.7 11.2-2.4 2.1-2.8 4.4-2.3 7.4.8 5.1 2 10.2 2.1 15.4.1 2.7-.9 6.5-2.9 8-1.9 1.4-5.9 1.6-8.4.7-5.1-1.8-9.8-5-14.9-7-2.1-.8-5-.8-7.1.1-5.2 2.1-10.1 5-15.3 7.3-5.9 2.5-11.3-1.4-11.1-8zm49.7-36.2c-10.6.4-16.3-5.2-19.2-14.3-3 4.4-4.7 8.7-7.9 11-3.1 2.3-7.8 2.4-12.8 3.8 8.9 5.7 11 13.4 7.9 23.2 8.2-6.5 16-6.1 24.4-.5-2.9-9.7-.5-17.1 7.6-23.1zM356.1 125.6c.8-5.6 1.9-11.2 2.3-16.8.2-2.3-.7-5.1-2.2-6.8-3.2-4-7.5-7.3-10.6-11.4-1.7-2.3-3.5-6.2-2.6-8.5.9-2.5 4.5-4.8 7.4-5.7 4.7-1.5 9.8-1.9 14.8-2.6 2.9-.4 4.9-1.5 6.2-4.4 2.2-4.8 4.4-9.5 7.4-13.7 1.6-2.4 4.8-5 7.4-4.9 2.5 0 5.7 2.6 7.3 4.9 3.1 4.4 5 9.5 7.8 14.1 1 1.6 3 3.1 4.9 3.6 4.9 1.2 9.9 1.9 14.8 2.7 3.7.6 7.1 1.7 8.5 5.5 1.4 3.9-.4 6.9-3.1 9.6-3.8 3.8-7.6 7.6-11.1 11.6-1.1 1.2-1.8 3.4-1.6 5.1.5 5.3 1.4 10.6 2.3 15.8.5 3.6.1 6.9-3 9.2-3.1 2.3-6.3 1.7-9.6 0-5.8-2.8-11.7-7.5-17.5-7.5-5.7-.1-11.4 4.8-17.1 7.5-7.1 3.3-13.2-.2-12.7-7.3zm49.7-36c-10.4.1-16.4-5.1-19.8-14.5-2.9 10.2-9.8 14.1-19.7 14.7 8.9 5.8 10.3 13.6 7.7 23.1 8.4-6.3 16.3-5.7 24.6.1-3.1-9.6-1.4-17.2 7.2-23.4z"/><path fill-rule="evenodd" class="s0" d="M249.6 347.7c26.1.1 47 21 47 47.1-.1 26.1-21 47-47.1 47-26.2-.1-47-21-47-47.1.1-26.2 21-47 47.1-47zM281 395c.1-17.6-13.8-31.6-31.4-31.7-17.4 0-31.3 13.6-31.5 31-.2 17.6 13.6 31.7 31.1 31.9 17.6.1 31.6-13.7 31.8-31.2z"/><path class="s0" d="M245.2 392.9c3.9-4.3 7.4-8.3 11.1-12.2 3.7-3.9 8.3-4.2 11.7-.9 3.1 2.9 3.1 7.5-.2 11.3-5.3 6.1-10.8 12.1-16.4 18-3.6 3.8-7.6 3.8-11.6.3-2.8-2.5-5.5-5.1-8.1-7.7-3.6-3.6-3.9-8.1-1.1-11.4 3-3.4 7.7-3.4 11.7-.1.9.8 1.7 1.6 2.9 2.7z"/></svg>