<svg id="Capa_1" data-name="Capa 1" xmlns="http://www.w3.org/2000/svg" viewBox="0 0 500 500"><defs><style>.cls-1{fill:#fff}</style></defs><path class="cls-1" d="M115.18 81.57h34.8c4.81 0 8.7-4.38 8.7-9.79V13.05c0-5.41-3.89-9.79-8.7-9.79h-34.8c-4.81 0-8.7 4.38-8.7 9.79v58.73c0 5.41 3.89 9.79 8.7 9.79ZM350.09 81.57h34.8c4.81 0 8.7-4.38 8.7-9.79V13.05c0-5.41-3.89-9.79-8.7-9.79h-34.8c-4.81 0-8.7 4.38-8.7 9.79v58.73c0 5.41 3.89 9.79 8.7 9.79ZM263.09 225.13h65.25v52.2h-65.25zM171.73 225.13h65.25v52.2h-65.25zM171.73 381.74h65.25v52.2h-65.25z"/><path class="cls-1" d="M471.9 42.42h-52.2v29.36c0 19.84-15.66 35.89-34.85 35.89h-34.72c-19.18 0-34.85-16.05-34.85-35.89V42.42h-130.5v29.36c0 19.84-15.66 35.89-34.85 35.89h-34.72c-19.18 0-34.85-16.05-34.85-35.89V42.42H28.17c-14.36 0-26.1 11.75-26.1 26.1v78.3H498v-78.3c0-14.36-11.75-26.1-26.1-26.1ZM263.09 381.74h65.25v52.2h-65.25zM80.38 303.43h65.25v52.2H80.38zM171.73 303.43h65.25v52.2h-65.25zM354.44 225.13h65.26v52.2h-65.26zM80.38 381.74h65.25v52.2H80.38zM354.44 381.74h65.28v52.2h-65.28z"/><path class="cls-1" d="M2.07 473.09c0 14.36 11.75 26.1 26.1 26.1H471.9c14.36 0 26.1-11.75 26.1-26.1V172.92H2.07v300.17Zm52.21-247.96c0-14.4 11.71-26.1 26.1-26.1H419.7c14.39 0 26.1 11.71 26.1 26.1v208.81c0 14.39-11.71 26.1-26.1 26.1H80.38c-14.39 0-26.1-11.71-26.1-26.1V225.13Z"/><path class="cls-1" d="M354.44 303.43h65.27v52.2h-65.27zM80.38 225.13h65.25v52.2H80.38zM263.09 303.43h65.25v52.2h-65.25z"/></svg>