<svg version="1.2" xmlns="http://www.w3.org/2000/svg" width="499" height="498"><style>.s0{fill:#bf282e}</style><path id="path6" fill-rule="evenodd" class="s0" d="M0 497.6v-16.1h71.9V353.2H56.7V305h31.7v-29.4c.2-15.6 8.9-27.3 23.8-31.8 9.4-2.9 19-5.5 28.5-8.1 2.9-.8 4-2.1 4.1-5.3.2-6.2-.7-11.3-5.4-16.2-6.2-6.3-9.6-14.7-10.3-23.6-1.2-16-2.2-31.9 6.2-46.9 15.6-27.5 56.9-31.6 77.3-7.4 8.2 9.7 12.5 20.7 12.2 33.4-.2 7.9 0 15.9-1 23.8-1.1 9.2-5.8 17-12.1 23.8-2.2 2.4-4.1 13.9-2.5 16.5.6.9 2.1 1.4 3.3 1.7 7.7 2.3 15.4 4.8 23.3 6.6 16.3 3.9 26.8 13.1 29.3 30.7 10.1 0 20.2-.8 30.1.2 10.7.9 18.2-2.5 25.2-10.4 10.1-11.4 21.4-21.7 32.1-32.3-5.3-3.7-10.6-6.7-15.2-10.6-9.4-8-14.6-18.4-15.5-30.8-1.1-15.4-1.8-30.7 6.2-45 15.8-28 57.3-31.9 77.9-7 7.6 9.2 11.6 19.7 11.7 31.6 0 2.8-.1 5.5.1 8.3.9 16.3-2.9 30.9-15.7 42.9 14.7 8.2 16.8 21.5 15.5 36.6h31.9c.2 2.2.4 3.9.4 5.6 0 32.1.1 64.2 0 96.3-.1 26-11.8 44.5-35.8 55-1.7.7-3.6 1.2-5.5 1.8-1.7.5-3.4.9-5.9 1.5.4 4.7.7 9.4 1.2 14.2 1.6 15.8 3.2 31.6 4.7 47.4.3 2.4 1 3.4 3.5 3.4 28.4-.1 56.8-.1 85.1-.1.4 0 .7-.2 1-.3v16.5zm88.7-112.5v96.4c5.8 0 11.5.1 17.1-.2 1.1 0 2.5-1.7 3.2-3 4.4-8.5 8.7-17 12.8-25.6 1.2-2.6 2.8-3.4 5.6-3.4q65.4.1 130.8 0c2.8 0 4.3.9 5.5 3.5 4.1 8.4 8.3 16.8 12.6 25.2.7 1.3 2.3 3.2 3.5 3.3 5.6.3 11.3.1 17 .1v-96.5H128.7v-15.7h168.2v-16H88.7v16.1h23.4v15.8H88.6zm159.7-112.7c-1.2-7.2-5.4-11.3-11.7-13.2-9.8-2.9-19.5-5.8-29.4-8.3-1.5-.4-3.8.7-5.3 1.7-4.3 3-8.1 7.1-12.8 9.3-12.6 5.9-26.6 2.2-37.1-8.6-1.4-1.4-4-2.9-5.5-2.5-10.2 2.6-20.3 5.5-30.3 8.6-5.6 1.7-10.5 5.4-10.9 11.2-.7 11.2-.2 22.5-.2 33.9h112.6c-2.4-21.8 4.9-29.6 30.6-32.1zm65.2 96.7h60.5c17.9 0 27.6-9.7 27.6-27.5v-93.1c-3.5 4.5-6.9 10-11.3 14.5-16.1 16.6-32.6 32.9-49.1 49.2-2.7 2.7-4 5.4-3.9 9.3.3 10.3.1 20.6.1 31.4h-23.9v16.2zm24-192.4c0 3-.1 6.6.1 10.1 1 15.5 13.1 27.7 29.2 29.4 14.3 1.6 29.6-7.8 32.8-22.3 2.1-9.6 2.1-19.9 1.3-29.8-1.1-13.6-11-23.9-24.2-27.1-12.3-3-25.6 2.1-33.3 12.7-5.9 8-6.5 17.1-5.9 27zM145 176c0 3.7-.2 7.5 0 11.2 1 15.9 15 28.9 31.4 29.2 15.8.3 30.2-11.9 31.9-27.5.7-6.8.9-13.6.6-20.4-.7-15.5-9.2-26.7-22.9-30.9-12.9-3.9-26.6.7-35 11.6-6.1 8-6.7 17.3-6 26.8zm175.8 160.7v-15.6H72.5v15.6zm113-63.7h-16.2v6.1c-.1 23.1.3 46.3-.4 69.5-.6 18.6-17.2 35.3-35.8 36-20.7.7-41.4.3-62.2.4h-5.6v16.1c27.3 0 54.2.1 81 0 3.1 0 6.2-.6 9.1-1.4 18.8-5.4 30-20.4 30.1-40.4.1-27.4 0-54.8 0-82.2V273zm-151.1 31.9c13 0 25.9.1 38.9-.2 2.4 0 5.4-1.1 7.1-2.8 17.5-17.1 34.7-34.5 52-51.8 1.2-1.3 2.5-2.6 3.4-4.1 2.2-3.8 1.8-7.6-1.2-10.7-3.1-3.1-6.9-3.5-10.7-1.4-1.8 1-3.3 2.6-4.8 4.1-16 15.8-31.8 31.8-47.9 47.6-1.7 1.7-4.7 2.9-7.1 2.9-22.5.2-45 .1-67.5.2-2.1 0-4.3.1-6.3.7-3.5.9-5.3 3.5-5.4 7.1-.1 3.8 1.7 6.6 5.4 7.7 1.8.5 3.8.6 5.7.6 12.8.1 25.6.1 38.4.1zm71.6 112.7h-40.8v63.5h47.1c-2.1-21.3-4.2-42.3-6.3-63.5zM125.8 481h134c-2.3-4.7-4.2-9-6.6-13-.7-1.2-2.6-2.4-4-2.4q-56.4-.2-112.8 0c-1.3 0-3.2.9-3.8 1.9-2.4 4.2-4.4 8.6-6.8 13.5zm260.6-63.4h-16c2.1 20.9 4.1 41.3 6.2 61.8.1.7 1.4 1.9 2.1 1.9 4.6.2 9.2.1 14 .1-2.1-21.8-4.2-42.7-6.3-63.8zM161.1 229.9c-1.3 8.5-.1 11.3 6.8 15.7 6.4 4.1 12 3.9 18.5-.5 5.4-3.7 7.8-8.4 5.7-15.2-10.3 3.3-20.7 3.1-31 0z"/><path id="path8" fill-rule="evenodd" class="s0" d="M249.1 79.9v.1-.1zM193 80V0h192.2v80h-5.6c-21.7 0-43.4.1-65.1-.1-4.5 0-7.9 1.1-11.4 4.1-16.4 13.9-33 27.6-49.6 41.4-1.2 1-2.4 2-4.4 3.5V80zm176.3-16.2h-.1zm0-47.7H209.2v47.7h56v30.7c2.1-1.6 3.4-2.5 4.6-3.5 9.7-8.1 19.3-16.3 29.2-24.1 2.2-1.8 5.4-2.9 8.2-2.9 20.5-.3 41.1-.2 62.1-.2z"/><path id="path10" class="s0" d="M321 31.9v15.5h-63.7V32zm-80.2 15.5h-15.7V31.9h15.7zm96.9-15.5h15.4v15.5h-15.4z"/></svg>