<svg id="Capa_1" data-name="Capa 1" xmlns="http://www.w3.org/2000/svg" viewBox="0 0 500 500"><defs><style>.cls-1{fill:#fff}</style></defs><path class="cls-1" d="M416.85 249.2c-22.76 0-43.33-9.9-57.35-25.72-12.34 13.63-19.8 31.63-19.8 51.43v40.63c0 7.2 5.79 12.86 12.86 12.86h128.58c7.07 0 12.86-5.66 12.86-12.86v-40.63c0-19.8-7.46-37.8-19.8-51.43-14.02 15.81-34.59 25.72-57.35 25.72Z"/><circle class="cls-1" cx="416.85" cy="172.01" r="51.43"/><path class="cls-1" d="M82.56 249.2c-22.76 0-43.33-9.9-57.35-25.72-12.34 13.63-19.8 31.63-19.8 51.43v40.63c0 7.2 5.79 12.86 12.86 12.86h128.58c7.07 0 12.86-5.66 12.86-12.86v-40.63c0-19.8-7.46-37.8-19.8-51.43-14.02 15.81-34.59 25.72-57.35 25.72Z"/><circle class="cls-1" cx="82.56" cy="172.01" r="51.43"/><path class="cls-1" d="M249.71 133.48c-22.76 0-43.33-9.9-57.35-25.72-12.34 13.63-19.8 31.63-19.8 51.43v40.63c0 7.2 5.79 12.86 12.86 12.86H314c7.07 0 12.86-5.66 12.86-12.86v-40.63c0-19.8-7.46-37.8-19.8-51.43-14.02 15.81-34.59 25.72-57.35 25.72Z"/><circle class="cls-1" cx="249.71" cy="56.29" r="51.43"/><path class="cls-1" d="M249.71 418.45c-22.76 0-43.33-9.9-57.35-25.72-12.34 13.63-19.8 31.63-19.8 51.43v40.63c0 7.2 5.79 12.86 12.86 12.86H314c7.07 0 12.86-5.66 12.86-12.86v-40.63c0-19.8-7.46-37.8-19.8-51.43-14.02 15.81-34.59 25.72-57.35 25.72Z"/><circle class="cls-1" cx="249.71" cy="341.26" r="51.43"/></svg>