<svg id="Capa_1" data-name="Capa 1" xmlns="http://www.w3.org/2000/svg" viewBox="0 0 500 500"><defs><style>.cls-1{fill:#fff}</style></defs><path class="cls-1" d="M81.04 419.88c-23.02 0-43.83-10.02-58.01-26.01C10.54 407.66 3 425.87 3 445.9V487c0 7.28 5.85 13.01 13.01 13.01h130.07c7.15 0 13.01-5.72 13.01-13.01v-41.1c0-20.03-7.54-38.24-20.03-52.03-14.18 16-34.99 26.01-58.01 26.01Z"/><circle class="cls-1" cx="81.04" cy="341.79" r="52.03"/><path class="cls-1" d="M477.23 393.86c-14.18 16-34.99 26.01-58.01 26.01s-43.83-10.02-58.01-26.01c-12.49 13.79-20.03 32-20.03 52.03v41.1c0 7.28 5.85 13.01 13.01 13.01h130.07c7.15 0 13.01-5.72 13.01-13.01v-41.1c0-20.03-7.54-38.24-20.03-52.03Z"/><circle class="cls-1" cx="419.22" cy="341.79" r="52.03"/><path class="cls-1" d="M250.13 327.66c-23.02 0-43.83-10.01-58.01-26.01-12.49 13.92-20.03 32.13-20.03 52.03v41.23c0 7.15 5.85 13.01 13.01 13.01h130.07c7.15 0 13.01-5.85 13.01-13.01v-41.23c0-19.9-7.54-38.11-20.03-52.03-14.18 16-34.99 26.01-58.01 26.01Z"/><circle class="cls-1" cx="250.13" cy="249.66" r="52.03"/><path class="cls-1" d="M32.96 201.38s-6.13 35.75-6.15 35.83c-1.77 10.34 9.57 18.62 18.88 13.71l32.17-16.91s32.12 16.88 32.17 16.91c9.37 4.93 20.66-3.31 18.87-13.71l-6.14-35.83s25.97-25.32 26.03-25.37c7.57-7.38 3.21-20.68-7.2-22.19l-35.98-5.23S89.56 116.05 89.53 116c-4.65-9.43-18.68-9.42-23.33 0l-16.09 32.59s-35.91 5.22-35.97 5.23c-10.47 1.52-14.77 14.8-7.21 22.19l26.03 25.37ZM377.5 201.38l-6.14 35.83c-1.78 10.41 9.49 18.62 18.87 13.71l32.17-16.91s32.12 16.88 32.17 16.91c9.37 4.92 20.64-3.36 18.88-13.71l-6.15-35.83s25.95-25.29 26.03-25.37c7.56-7.37 3.19-20.68-7.21-22.19l-35.97-5.23L434.06 116c-4.39-8.9-18.95-8.87-23.33 0l-16.08 32.59-35.98 5.23c-10.41 1.51-14.75 14.85-7.2 22.19l26.03 25.37ZM205.23 97.04s-6.13 35.76-6.14 35.83c-1.79 10.43 9.5 18.63 18.87 13.71l32.17-16.91s32.11 16.88 32.17 16.91c9.36 4.92 20.65-3.35 18.87-13.71l-6.14-35.83 26.03-25.37c7.59-7.4 3.23-20.67-7.21-22.19l-35.97-5.22-16.08-32.59c-4.38-8.88-18.95-8.88-23.33 0l-16.08 32.59-35.97 5.22c-10.44 1.51-14.75 14.83-7.21 22.19l26.03 25.37Z"/></svg>