<svg id="Capa_1" data-name="Capa 1" xmlns="http://www.w3.org/2000/svg" viewBox="0 0 500 500"><defs><style>.cls-1{fill:#fff}</style></defs><path class="cls-1" d="M342.11 157.89c18.29 0 35.92 2.63 52.63 7.63V26.32C394.74 11.84 382.89 0 368.42 0H26.32C11.84 0 0 11.84 0 26.32v197.36C0 238.15 11.84 250 26.32 250h43.16l10.13 30.53c1.45 4.34 5 7.5 9.47 8.55 4.41 1.04 9.14-.19 12.37-3.42L136.98 250h45.66c31.84-55 91.45-92.11 159.47-92.11Zm-250 46.05c-7.27 0-13.16-5.89-13.16-13.16s5.89-13.16 13.16-13.16 13.16 5.89 13.16 13.16-5.89 13.16-13.16 13.16Zm13.16-74.62v15.41c0 7.27-5.89 13.16-13.16 13.16S78.95 152 78.95 144.73v-26.32c0-7.27 5.89-13.16 13.16-13.16s13.16-5.9 13.16-13.16-5.9-13.16-13.16-13.16-13.16 5.9-13.16 13.16-5.89 13.16-13.16 13.16-13.16-5.89-13.16-13.16c0-21.77 17.71-39.47 39.47-39.47s39.47 17.71 39.47 39.47c0 17.15-11 31.79-26.32 37.23Zm65.78-76.69h157.89c7.27 0 13.16 5.89 13.16 13.16s-5.89 13.16-13.16 13.16H171.05c-7.27 0-13.16-5.89-13.16-13.16s5.89-13.16 13.16-13.16Zm0 52.63h157.89c7.27 0 13.16 5.89 13.16 13.16s-5.89 13.16-13.16 13.16H171.05c-7.27 0-13.16-5.89-13.16-13.16s5.89-13.16 13.16-13.16Zm26.32 78.95h-26.32c-7.27 0-13.16-5.89-13.16-13.16s5.89-13.16 13.16-13.16h26.32c7.27 0 13.16 5.89 13.16 13.16s-5.89 13.16-13.16 13.16ZM412.47 280.47c-10.72 2.52-22.08.89-32.05-4.86-10.07-5.81-17.22-14.92-20.45-25.61h-35.72c-3.23 10.69-10.38 19.8-20.45 25.61-9.96 5.74-21.31 7.38-32.05 4.86l-17.92 31.2c7.57 8.11 11.87 18.84 11.87 30.44s-4.29 22.33-11.87 30.44l17.92 31.2c10.74-2.49 22.09-.87 32.05 4.86 10.07 5.81 17.22 14.92 20.45 25.61h35.72c3.23-10.69 10.38-19.8 20.45-25.61 9.97-5.73 21.33-7.35 32.05-4.86l17.92-31.2c-7.57-8.11-11.87-18.84-11.87-30.44s4.29-22.33 11.87-30.44l-17.92-31.2Zm-70.36 114.27c-29.02 0-52.63-23.6-52.63-52.63s23.61-52.63 52.63-52.63 52.63 23.6 52.63 52.63-23.61 52.63-52.63 52.63Z"/><path class="cls-1" d="M342.11 184.21c-87.07 0-157.89 70.83-157.89 157.89s70.83 157.89 157.89 157.89S500 429.16 500 342.1s-70.83-157.89-157.89-157.89Zm116.67 191.75-29.1 50.65c-1.75 3.03-4.63 5.26-8.01 6.15-3.38.89-6.98.42-10.01-1.32-5.76-3.35-12.36-3.37-18.12-.04-5.75 3.32-9.19 9.28-9.19 15.96 0 7.27-5.89 13.16-13.16 13.16h-58.2c-7.27 0-13.16-5.89-13.16-13.16 0-6.68-3.44-12.64-9.19-15.96-5.76-3.33-12.36-3.32-18.12.04-3.02 1.75-6.63 2.21-10.01 1.32-3.38-.9-6.26-3.12-8.01-6.15l-29.1-50.65c-3.61-6.28-1.46-14.3 4.81-17.94 5.72-3.32 9.13-9.26 9.13-15.92s-3.41-12.61-9.13-15.92c-6.27-3.64-8.42-11.65-4.81-17.94l29.1-50.65c1.75-3.03 4.63-5.26 8.01-6.15 3.38-.9 6.99-.42 10.01 1.32 5.76 3.37 12.36 3.35 18.12.04 5.75-3.32 9.19-9.28 9.19-15.96 0-7.27 5.89-13.16 13.16-13.16h58.2c7.27 0 13.16 5.89 13.16 13.16 0 6.68 3.44 12.64 9.19 15.96 5.76 3.32 12.36 3.33 18.12-.04 3.03-1.75 6.63-2.22 10.01-1.32 3.38.9 6.26 3.12 8.01 6.15l29.1 50.65c3.61 6.28 1.46 14.3-4.81 17.94-5.72 3.32-9.13 9.26-9.13 15.92s3.41 12.61 9.13 15.92c6.27 3.64 8.42 11.65 4.81 17.94Z"/><circle class="cls-1" cx="342.11" cy="342.11" r="26.32"/></svg>