<svg version="1.1" id="Capa_1" xmlns="http://www.w3.org/2000/svg" x="0" y="0" viewBox="0 0 500 500" style="enable-background:new 0 0 500 500" xml:space="preserve"><style>.st0{fill:#bf282e}</style><path class="st0" d="M83.4 442.6c57.7 37.1 118.3 54.8 191 55.8 1.9-.2 4.2-.4 7-.7 8.8-.8 22.1-2 35.1-4.1C393 481.2 438.9 436.9 445.7 369c6.8-68.5-24.9-113.8-99.6-142.7-16.2-6.2-42.4-14.1-70.2-22.3-34.2-10.2-69.5-20.7-89.8-29.4-11.3-4.9-27.2-10.9-33.8-7.2-4.9 2.8-8.4 12.7-10.7 30.3-5.2 40.6 8.4 62.7 44.2 71.7 17.6 4.4 87 22.5 106.1 30.2 15.6 6.2 63 24.9 49.9 77-12.4 49.3-61.9 46.2-80.5 45.1-50.7-3.1-95.3-24.6-135.8-47.5-10 1.3-46.9 23.9-53.4 45.7-1.7 5.6-2.3 14.1 11.3 22.7z"/><path class="st0" d="M430.9 76.1c9.7-24.5 9.8-31.2-12.1-41C365.8 11.7 316.1 0 268.5 0c-23.3 0-46.2 2.8-68.7 8.4-48.1 11.9-83.5 40.5-99.6 80.5-14.2 35.1-11.7 74.4 6.6 112.7C130.3 119.3 186.5 74.4 264.2 78c40.2 1.8 73.3 11.1 98.5 27.8 16.8 11.1 29.5 15 38.8 12.1 12.8-4.1 21.7-22.5 29.4-41.8z"/></svg>